<?xml version="1.0" encoding="utf-8"?>
<!-- Generator: Adobe Illustrator 25.1.0, SVG Export Plug-In . SVG Version: 6.00 Build 0)  -->
<svg version="1.1" id="Layer_1" xmlns="http://www.w3.org/2000/svg" xmlns:xlink="http://www.w3.org/1999/xlink" x="0px" y="0px"
	 viewBox="0 0 28 26.3" style="enable-background:new 0 0 28 26.3;" xml:space="preserve">
<style type="text/css">
	.st0{fill:#596ACF;}
</style>
<g id="Layer_2_1_">
	<g id="Layer_1-2">
		<path class="st0" d="M17.2,10.7c0,0.2,0,0.3,0,0.5l0,0c-0.1,0.3-0.2,0.6-0.5,0.8c-0.7,0.7-1.8,0.7-2.4,0c-0.7-0.7-1.6-1-2.6-0.8
			l0,0c-0.2,0-0.4,0.1-0.6,0.2c-0.3,0.1-0.7,0.4-0.9,0.6l-2.7,2.7l0,0L4.3,18c-1.1,1.1-1.1,2.9,0,4c1.1,1.1,2.9,1.1,4,0l2.5-2.5
			c1,0.7,2.2,1.2,3.5,1.5l-3.5,3.5c-2.5,2.5-6.4,2.5-8.9,0s-2.5-6.4,0-8.9l0,0l5.9-6c2.5-2.5,6.4-2.5,8.9,0c0.1,0.1,0.2,0.3,0.3,0.4
			v0.1C17,10.3,17.1,10.4,17.2,10.7C17.1,10.6,17.2,10.6,17.2,10.7z M26.2,1.8c-2.5-2.5-6.4-2.5-8.9,0l-3.5,3.5
			C15,5.6,16.2,6,17.2,6.7l2.5-2.5c1.1-1.1,2.9-1.1,4,0c1.1,1.1,1.1,2.9,0,4l-1.1,1.1l0,0l-4.8,4.8c-1.1,1.1-2.9,1.1-4,0
			c-0.7-0.6-1.8-0.6-2.4,0.1c-0.6,0.7-0.6,1.7,0,2.3c2.5,2.5,6.4,2.5,8.9,0l4.8-4.8l0,0l1.1-1.1C28.7,8.3,28.7,4.3,26.2,1.8
			L26.2,1.8z"/>
	</g>
</g>
</svg>
